<svg xmlns="http://www.w3.org/2000/svg" width="15" height="18" viewBox="0 0 15 18"><g><g><path fill="#797979" d="M15 7.314a7.333 7.333 0 0 1-.184 1.618 7.066 7.066 0 0 1-.5 1.44c-.761 1.749-2.42 4.44-6.005 7.342-.236.19-.521.286-.81.286-.29 0-.575-.095-.811-.286-3.584-2.899-5.243-5.593-6.005-7.343a7.274 7.274 0 0 1-.553-1.684A7.198 7.198 0 0 1 .035 6.6C.395 2.97 3.488.132 7.234.004c2.057-.066 4.001.659 5.477 2.05C14.186 3.444 15 5.312 15 7.314zm-1.351 0a5.872 5.872 0 0 0-1.877-4.316 6.185 6.185 0 0 0-4.493-1.68c-3.07.103-5.608 2.427-5.9 5.407a5.69 5.69 0 0 0 .094 1.728c0 .01.003.018.003.029l.034.15v.007c.094.41.232.81.413 1.19 0 .004.004.011.007.018.699 1.607 2.23 4.093 5.574 6.813 3.345-2.724 4.876-5.206 5.575-6.813a5.899 5.899 0 0 0 .42-1.208v-.007c.019-.08.03-.132.033-.15 0-.011.004-.018.004-.03a5.83 5.83 0 0 0 .113-1.138zm-2.155.073c0 .927-.338 1.827-.957 2.53a.685.685 0 0 1-.953.073.646.646 0 0 1-.076-.93c.41-.465.635-1.057.635-1.673 0-1.42-1.186-2.577-2.642-2.577S4.858 5.967 4.858 7.387s1.187 2.577 2.643 2.577a.67.67 0 0 1 .675.66.67.67 0 0 1-.675.658c-2.2 0-3.994-1.746-3.994-3.895 0-2.148 1.794-3.895 3.994-3.895 2.203 0 3.993 1.75 3.993 3.895z"/></g></g></svg>