<svg xmlns="http://www.w3.org/2000/svg" width="92" height="75" viewBox="0 0 92 75"><g><g><path fill="#edbbff" d="M43.5 0C64.21 0 81 16.79 81 37.5S64.21 75 43.5 75C22.788 75 6 58.21 6 37.5S22.789 0 43.5 0z"/></g><g><path fill="#101010" d="M81.218 64.263a3.585 3.585 0 0 1-3.594 3.579 3.585 3.585 0 0 1-3.594-3.58 3.585 3.585 0 0 1 3.594-3.578 3.585 3.585 0 0 1 3.594 3.579zm-3.594-16.105c0 .987-.805 1.79-1.797 1.79-.991 0-1.797-.803-1.797-1.79 0-.988.806-1.79 1.797-1.79.992 0 1.797.802 1.797 1.79zm-51.39 16.105a3.585 3.585 0 0 1-3.594 3.579 3.585 3.585 0 0 1-3.594-3.58 3.585 3.585 0 0 1 3.595-3.578 3.585 3.585 0 0 1 3.592 3.579zm65.765-16.105v10.737c0 2.335-1.506 4.326-3.601 5.062.003.103.008.204.008.306C88.406 70.183 83.57 75 77.624 75s-10.781-4.816-10.781-10.737H33.422C33.422 70.183 28.585 75 22.64 75c-5.946 0-10.782-4.816-10.782-10.737h-6.47c-2.972 0-5.39-2.408-5.39-5.368V12.368C0 9.408 2.417 7 5.39 7h52.47c2.972 0 5.39 2.408 5.39 5.368v5.368h14.375c2.973 0 5.391 2.409 5.391 5.369a5.315 5.315 0 0 1-1.666 3.878l3.098 12.342c4.276.685 7.552 4.384 7.552 8.833zm-28.75-19.684v8.205l4.12-4.102a1.801 1.801 0 0 1 2.541 0 1.784 1.784 0 0 1 0 2.53l-4.12 4.104h14.924l-2.696-10.737zm14.375-7.159H63.25v3.58h14.375c.992 0 1.797-.802 1.797-1.79 0-.987-.805-1.79-1.797-1.79zM29.827 64.263c0-3.992-3.273-7.158-7.187-7.158-3.905 0-7.188 3.157-7.188 7.158 0 3.947 3.225 7.158 7.188 7.158 3.962 0 7.187-3.211 7.187-7.158zm29.829-3.579V12.368c0-.987-.806-1.79-1.797-1.79H5.39c-.99 0-1.796.803-1.796 1.79v46.527c0 .986.806 1.79 1.797 1.79h7.085c1.498-4.222 5.56-7.159 10.166-7.159 4.6 0 8.662 2.935 10.164 7.158zm25.156 3.579c0-3.992-3.274-7.158-7.188-7.158-3.905 0-7.187 3.157-7.187 7.158 0 3.947 3.225 7.158 7.187 7.158 3.963 0 7.188-3.211 7.188-7.158zm3.594-5.368v-8.948h-5.39a1.793 1.793 0 0 1-1.798-1.79c0-.988.805-1.789 1.797-1.789h5.082a5.398 5.398 0 0 0-5.082-3.579H63.25v17.895h4.21c1.498-4.22 5.561-7.158 10.165-7.158a10.82 10.82 0 0 1 10.037 6.816c.45-.325.745-.853.745-1.447zm-40.61-25.053c0 8.88-7.255 16.105-16.172 16.105-8.917 0-16.172-7.225-16.172-16.105s7.255-16.106 16.172-16.106c8.917 0 16.172 7.226 16.172 16.106zm-3.593 0c0-6.907-5.644-12.527-12.579-12.527-6.935 0-12.578 5.62-12.578 12.527 0 6.907 5.643 12.526 12.578 12.526s12.579-5.62 12.579-12.526zm-3.595 0c0 .988-.804 1.79-1.796 1.79h-7.188a1.794 1.794 0 0 1-1.797-1.79v-7.158c0-.989.805-1.79 1.797-1.79.993 0 1.798.801 1.798 1.79v5.369h5.39c.992 0 1.796.8 1.796 1.789z"/></g></g></svg>