<svg xmlns="http://www.w3.org/2000/svg" width="83" height="82" viewBox="0 0 83 82"><g><g><path fill="#bbffb0" d="M45.5 7c20.71 0 37.499 16.79 37.499 37.5S66.209 82 45.499 82 8 65.21 8 44.5 24.789 7 45.499 7z"/></g><g><path fill="#101010" d="M23.667 70.789c0 2.65-2.181 4.805-4.864 4.805-2.681 0-4.862-2.156-4.862-4.805 0-2.65 2.18-4.805 4.862-4.805 2.683 0 4.864 2.156 4.864 4.805zm-3.241 0c0-.883-.728-1.602-1.622-1.602-.894 0-1.62.719-1.62 1.602 0 .883.726 1.602 1.62 1.602.894 0 1.622-.719 1.622-1.602zm62.573 0c0 2.65-2.181 4.805-4.863 4.805H29.058C27.196 79.467 23.212 82 18.803 82c-6.256 0-11.346-5.03-11.346-11.211 0-4.355 2.563-8.291 6.484-10.13V9.608H4.863c-2.682 0-4.864-2.155-4.864-4.805C0 2.155 2.181 0 4.863 0h13.94c2.683 0 4.864 2.155 4.864 4.804v55.854a11.214 11.214 0 0 1 5.391 5.326h1.094V8.007a1.61 1.61 0 0 1 1.62-1.601h32.423c.895 0 1.62.717 1.62 1.601V29.79h8.106c.896 0 1.621.717 1.621 1.601v34.594h2.594c2.682 0 4.863 2.156 4.863 4.805zM72.3 32.992H60.952v16.976a1.6 1.6 0 0 1-.896 1.433 1.637 1.637 0 0 1-1.697-.151l-5.512-4.084-5.512 4.084a1.636 1.636 0 0 1-1.697.151 1.6 1.6 0 0 1-.896-1.433V32.992H33.394v32.992H72.3zM47.983 46.765l3.89-2.883a1.638 1.638 0 0 1 1.946 0l3.89 2.883V32.992h-9.726zm-3.241-27.977l2.343-1.543a1.632 1.632 0 0 1 1.798 0l2.343 1.543V9.61h-6.484zM33.394 9.61v20.18h29.18V9.609h-8.106v12.172a1.6 1.6 0 0 1-.856 1.412 1.64 1.64 0 0 1-1.665-.08l-3.964-2.61-3.963 2.61a1.638 1.638 0 0 1-1.664.08 1.6 1.6 0 0 1-.857-1.412V9.609zM15.562 6.406c.895 0 1.621.717 1.621 1.601v51.687a11.516 11.516 0 0 1 3.243 0V4.804c0-.883-.728-1.601-1.623-1.601H4.863c-.895 0-1.622.718-1.622 1.601 0 .884.727 1.602 1.622 1.602zM26.91 70.789c0-4.364-3.578-8.008-8.106-8.008-4.529 0-8.105 3.64-8.105 8.008 0 4.415 3.636 8.008 8.105 8.008 4.421 0 8.106-3.534 8.106-8.008zm52.847 0c0-.883-.726-1.602-1.62-1.602H30.033c.076.528.118 1.063.118 1.602 0 .54-.04 1.073-.118 1.602h48.102c.895 0 1.621-.719 1.621-1.602zm-13.941-9.61v-3.202c0-.885.726-1.602 1.62-1.602.896 0 1.622.717 1.622 1.602v3.203c0 .884-.726 1.601-1.622 1.601-.894 0-1.62-.717-1.62-1.601zm1.62-11.21c.896 0 1.622.717 1.622 1.601s-.726 1.602-1.622 1.602c-.894 0-1.62-.718-1.62-1.602 0-.884.726-1.602 1.62-1.602zm-4.863 8.008v3.203c0 .884-.726 1.601-1.62 1.601a1.61 1.61 0 0 1-1.621-1.601v-3.203a1.61 1.61 0 0 1 1.62-1.602c.895 0 1.621.717 1.621 1.602z"/></g></g></svg>