<svg xmlns="http://www.w3.org/2000/svg" width="90" height="91" viewBox="0 0 90 91"><g><g><path fill="#ffa98e" d="M45.5 16C66.21 16 83 32.79 83 53.5S66.21 91 45.5 91 8 74.21 8 53.5 24.79 16 45.5 16z"/></g><g><path fill="#101010" d="M10.898 41.308c0 .463-.188.916-.516 1.243-.327.327-.78.515-1.243.515a1.77 1.77 0 0 1-1.241-.515 1.769 1.769 0 0 1-.516-1.243c0-.462.188-.916.516-1.242.326-.327.78-.515 1.241-.515.463 0 .916.188 1.243.515.328.326.516.78.516 1.242zm27.966-33.03v2.248c0 4.565-3.714 8.278-8.28 8.278-4.563 0-8.277-3.713-8.277-8.278V8.278C22.307 3.714 26.02 0 30.585 0s8.279 3.714 8.279 8.278zm-3.516 2.248V8.278a4.768 4.768 0 0 0-4.763-4.762 4.768 4.768 0 0 0-4.762 4.762v2.248a4.768 4.768 0 0 0 4.762 4.763 4.768 4.768 0 0 0 4.763-4.763zm32.344-2.248v2.248c0 4.565-3.713 8.278-8.279 8.278-4.564 0-8.278-3.713-8.278-8.278V8.278C51.135 3.714 54.85 0 59.413 0c4.566 0 8.28 3.714 8.28 8.278zm-3.516 0a4.768 4.768 0 0 0-4.763-4.762 4.768 4.768 0 0 0-4.763 4.762v2.248a4.769 4.769 0 0 0 4.763 4.763 4.769 4.769 0 0 0 4.763-4.763zM90 40.563v12.285c0 4.439-3.18 8.147-7.383 8.97v3.397a1.758 1.758 0 1 1-3.515 0V58.13H68.554v28.353h3.516v-21.27a1.758 1.758 0 0 1 3.515 0v21.27h3.516v-7.207a1.758 1.758 0 0 1 3.515 0v8.965c0 .97-.787 1.758-1.757 1.758H66.796c-.97 0-1.758-.787-1.758-1.758V61.817a9.154 9.154 0 0 1-5.625-3.588 9.154 9.154 0 0 1-5.624 3.588v26.425c0 .97-.788 1.758-1.758 1.758H37.968c-.971 0-1.758-.787-1.758-1.758V61.817a9.154 9.154 0 0 1-5.625-3.588 9.154 9.154 0 0 1-5.625 3.588v26.425c0 .97-.787 1.758-1.758 1.758H9.14c-.97 0-1.757-.787-1.757-1.758V61.817C3.181 60.995 0 57.287 0 52.848V40.563c0-5.364 4.165-9.77 9.43-10.164a8.23 8.23 0 0 1-1.537-4.795v-2.247c0-4.565 3.713-8.279 8.278-8.279s8.279 3.714 8.279 8.279v2.247a8.23 8.23 0 0 1-1.536 4.795 10.2 10.2 0 0 1 7.671 4.447 10.2 10.2 0 0 1 7.672-4.447 8.23 8.23 0 0 1-1.536-4.795v-2.247c0-4.565 3.714-8.279 8.28-8.279 4.564 0 8.277 3.714 8.277 8.279v2.247c0 1.787-.57 3.441-1.536 4.795a10.2 10.2 0 0 1 7.672 4.447 10.196 10.196 0 0 1 7.672-4.447 8.23 8.23 0 0 1-1.536-4.795v-2.247c0-4.565 3.713-8.279 8.278-8.279s8.279 3.714 8.279 8.279v2.247A8.23 8.23 0 0 1 80.57 30.4c5.265.393 9.429 4.8 9.429 10.164zM11.408 25.604a4.768 4.768 0 0 0 4.764 4.763 4.768 4.768 0 0 0 4.762-4.763v-2.247a4.768 4.768 0 0 0-4.762-4.763 4.768 4.768 0 0 0-4.764 4.763zm10.036 32.527H10.898v28.353h3.516v-21.27a1.757 1.757 0 1 1 3.515 0v21.27h3.515zm7.383-17.568a6.687 6.687 0 0 0-6.68-6.68H10.196a6.688 6.688 0 0 0-6.68 6.68v12.285a5.634 5.634 0 0 0 3.867 5.342V47.636a1.758 1.758 0 1 1 3.516 0v6.98h10.546V41.307a1.758 1.758 0 0 1 3.516 0V58.19a5.633 5.633 0 0 0 3.867-5.342zm11.409-17.206v2.247a4.768 4.768 0 0 0 4.763 4.763 4.768 4.768 0 0 0 4.763-4.763v-2.247A4.768 4.768 0 0 0 45 18.594a4.768 4.768 0 0 0-4.763 4.763zM50.273 58.13H39.726v28.353h3.515v-21.27a1.758 1.758 0 0 1 3.516 0v21.27h3.516zm7.382-17.568a6.687 6.687 0 0 0-6.679-6.68H39.022a6.688 6.688 0 0 0-6.68 6.68v12.285a5.633 5.633 0 0 0 3.868 5.342V41.308a1.758 1.758 0 0 1 3.516 0v13.307h10.547V41.308a1.758 1.758 0 0 1 3.515 0V58.19a5.633 5.633 0 0 0 3.867-5.342zm11.41-14.959a4.768 4.768 0 0 0 4.763 4.763 4.768 4.768 0 0 0 4.763-4.763v-2.247a4.768 4.768 0 0 0-4.763-4.763 4.768 4.768 0 0 0-4.764 4.763zm17.419 14.959a6.688 6.688 0 0 0-6.68-6.68H67.85a6.688 6.688 0 0 0-6.68 6.68v12.285a5.633 5.633 0 0 0 3.867 5.342V41.308a1.758 1.758 0 0 1 3.516 0v13.307h10.547V41.308a1.758 1.758 0 0 1 3.515 0V58.19a5.634 5.634 0 0 0 3.868-5.342zm-3.868 31.744c0 .463-.188.916-.515 1.243a1.77 1.77 0 0 1-1.242.515c-.463 0-.915-.188-1.243-.515a1.767 1.767 0 0 1-.515-1.243c0-.462.188-.915.515-1.242a1.77 1.77 0 0 1 1.243-.515c.464 0 .915.188 1.242.515.327.327.515.78.515 1.242z"/></g></g></svg>