<svg xmlns="http://www.w3.org/2000/svg" width="92" height="92" viewBox="0 0 92 92"><g><g><path fill="#9cf2ff" d="M47.499 16c20.711 0 37.5 16.79 37.5 37.5S68.21 91 47.5 91c-20.71 0-37.5-16.79-37.5-37.5S26.79 16 47.5 16z"/></g><g><path fill="#101010" d="M1.804 88.363c.998 0 1.808.814 1.808 1.819 0 1.004-.81 1.818-1.808 1.818a1.813 1.813 0 0 1-1.807-1.818c0-1.005.809-1.819 1.807-1.819zm46.17-46.11a1.81 1.81 0 0 1 1.805 1.815 1.81 1.81 0 0 1-1.805 1.814 1.81 1.81 0 0 1-1.804-1.814 1.81 1.81 0 0 1 1.804-1.815zm23.624-10.267a7.633 7.633 0 0 1-5.43 2.259 7.63 7.63 0 0 1-5.428-2.259c-2.994-3.01-2.994-7.91 0-10.922a7.605 7.605 0 0 1 5.429-2.262c2.051 0 3.98.803 5.43 2.262 2.993 3.011 2.993 7.91 0 10.922zm-2.55-8.357a4.032 4.032 0 0 0-2.88-1.198c-1.086 0-2.108.425-2.877 1.198a4.115 4.115 0 0 0 0 5.791 4.059 4.059 0 0 0 5.757 0 4.117 4.117 0 0 0 0-5.79zm-45.706 52.9l-2.149 4.34a9.572 9.572 0 0 1-7.888 5.297l-2.499.172A4.661 4.661 0 0 1 7.18 84.97a4.717 4.717 0 0 1-1.36-3.648l.172-2.514c.23-3.382 2.248-6.422 5.265-7.934l4.315-2.161a1.798 1.798 0 0 1 2.418.815 1.819 1.819 0 0 1-.81 2.434l-4.315 2.16a5.99 5.99 0 0 0-3.273 4.934l-.171 2.514c-.029.425.182.704.31.834.129.129.406.34.829.312l2.499-.172a5.951 5.951 0 0 0 4.905-3.293l2.148-4.34a1.8 1.8 0 0 1 2.42-.816 1.82 1.82 0 0 1 .81 2.433zm68.65-72.122l-.044.883c-.775 15.934-8.406 30.681-20.936 40.46l-4.18 3.264v9.94c0 8.254-3.196 16.014-8.998 21.851l-10.598 10.66a1.8 1.8 0 0 1-1.923.41 1.816 1.816 0 0 1-1.154-1.6l-1.158-22.66-1.229.96a1.798 1.798 0 0 1-1.968.16 40.707 40.707 0 0 1-1.58-.912c-.871.721-1.803 1.504-2.714 2.268-1.278 1.072-2.599 2.182-3.746 3.117a1.795 1.795 0 0 1-1.908.231 23.613 23.613 0 0 1-6.693-4.748 23.777 23.777 0 0 1-4.584-6.596 1.823 1.823 0 0 1 .251-1.945l5.32-6.353a42.322 42.322 0 0 1-1.105-1.919 1.823 1.823 0 0 1 .185-2.01l.915-1.133-22.433-1.16a1.806 1.806 0 0 1-1.592-1.16 1.824 1.824 0 0 1 .41-1.935l10.596-10.66c5.802-5.836 13.518-9.05 21.724-9.05h.053l10.346.306 3.954-4.897C56.718 8.396 70.813 1.084 85.875.117l1.68-.108a4.162 4.162 0 0 1 3.196 1.2 4.22 4.22 0 0 1 1.24 3.198zm-65.03 40.84l13.424-16.625-7.562-.224c-7.233.008-14.032 2.844-19.147 7.989L5.95 44.16zm8.123 20.477a41.906 41.906 0 0 1-4.967-4.295l-.001-.001-.002-.001-.002-.003a41.952 41.952 0 0 1-3.86-4.505l-3.895 4.65a20.055 20.055 0 0 0 3.367 4.566 19.93 19.93 0 0 0 4.67 3.512c.896-.742 1.861-1.552 2.803-2.342.628-.527 1.265-1.062 1.887-1.581zm28.139-6.77v-7.123L46.476 64.904l1.078 21.109 7.729-7.774c5.121-5.152 7.941-12 7.941-19.285zM88.388 4.23a.563.563 0 0 0-.169-.435.563.563 0 0 0-.435-.164l-1.68.108c-14.06.902-27.218 7.729-36.1 18.729l-23.2 28.728a38.362 38.362 0 0 0 4.627 6.345l9.53-9.586a1.797 1.797 0 0 1 2.55 0 1.823 1.823 0 0 1 0 2.567l-9.538 9.594a38.214 38.214 0 0 0 6.534 4.852l28.294-22.084c11.697-9.13 18.82-22.897 19.544-37.771z"/></g></g></svg>