<svg xmlns="http://www.w3.org/2000/svg" width="18" height="18" viewBox="0 0 18 18"><g><g><path fill="#797979" d="M.195 14.44l6.536-6.513a.67.67 0 0 1 .943 0 .668.668 0 0 1 0 .94l-6.06 6.038 1.493 1.49 6.059-6.04a.665.665 0 0 1 1.071.188L12 14.296l4.3-12.573-12.62 4.29 1.422.667a.659.659 0 0 1 .317.881.661.661 0 0 1-.882.317L1.629 6.515a.669.669 0 0 1-.38-.638.66.66 0 0 1 .45-.59L17.154.035a.667.667 0 0 1 .683.158c.178.18.24.443.16.683L12.723 16.28a.667.667 0 1 1-1.234.07l-2.062-4.385-5.86 5.838a.662.662 0 0 1-.938 0L.195 15.377A.667.667 0 0 1 0 14.91c0-.177.07-.347.195-.468z"/></g></g></svg>