<svg xmlns="http://www.w3.org/2000/svg" width="19" height="19" viewBox="0 0 19 19"><g><g><path fill="#797979" d="M16.216 2.784A9.432 9.432 0 0 0 9.499 0C6.961 0 4.58.989 2.784 2.784A9.43 9.43 0 0 0 0 9.5a9.43 9.43 0 0 0 2.784 6.716A9.431 9.431 0 0 0 9.499 19a9.491 9.491 0 0 0 4.436-1.098.7.7 0 0 0-.655-1.238 8.108 8.108 0 0 1-3.78.934C5.033 17.598 1.4 13.965 1.4 9.5 1.401 5.034 5.034 1.4 9.5 1.4c4.467 0 8.099 3.633 8.099 8.099 0 1.503-.421 2.36-.775 2.81-.378.488-.883.764-1.39.764-.705 0-1.417-.56-1.417-1.814V5.805c0-.385-.315-.701-.7-.701-.387 0-.702.316-.702.7v.308A4.808 4.808 0 0 0 4.4 9.5a4.814 4.814 0 0 0 6.187 4.607c.37-.11.58-.503.47-.872a.702.702 0 0 0-.871-.471A3.41 3.41 0 0 1 5.801 9.5a3.41 3.41 0 0 1 3.407-3.407A3.408 3.408 0 0 1 12.614 9.5v1.76c0 2.11 1.418 3.215 2.82 3.215.937 0 1.849-.474 2.495-1.304.7-.9 1.07-2.168 1.07-3.671 0-2.539-.989-4.922-2.783-6.716z"/></g></g></svg>