<svg xmlns="http://www.w3.org/2000/svg" width="17" height="17" viewBox="0 0 17 17"><g><g><path fill="#797979" d="M.11 3.991c-.091 1.093.225 2.1.471 2.76.586 1.59 1.467 3.06 2.776 4.638a17.04 17.04 0 0 0 5.682 4.448l.002.003c.841.397 1.968.868 3.237.948 1.003.061 1.837-.262 2.475-.957.009-.008.018-.017.023-.028.216-.261.469-.502.73-.757.112-.107.224-.22.339-.334l.008-.009c.817-.85.812-1.97-.01-2.791l-1.969-1.97c-.386-.403-.858-.616-1.356-.621-.51-.006-.998.208-1.408.617l-1.04 1.04a.716.716 0 0 0-.001 1.01.716.716 0 0 0 1.01 0l1.04-1.041c.093-.093.233-.2.381-.202.138.002.267.103.348.19l.01.011 1.978 1.978c.27.269.267.502-.006.79-.1.101-.207.203-.314.31-.277.266-.56.543-.821.854-.348.37-.757.522-1.327.486-1.022-.064-1.984-.47-2.71-.814a15.609 15.609 0 0 1-5.205-4.078c-1.2-1.446-2.006-2.785-2.535-4.217C1.6 5.397 1.48 4.733 1.53 4.11c.034-.365.169-.656.43-.917l1.22-1.22c.345-.328.591-.16.745-.006l.017.017c.215.198.42.409.639.633.112.112.224.23.342.347l.975.975c.288.289.288.496-.001.785a14.49 14.49 0 0 0-.294.3 14.98 14.98 0 0 1-.715.693l-.029.028c-.442.443-.292.897-.241 1.048.006.017.01.034.019.048.263.633.628 1.233 1.188 1.939l.005.006c.709.87 1.432 1.594 2.213 2.218a.71.71 0 0 0 1-.115.709.709 0 0 0-.113-1.001 12.868 12.868 0 0 1-1.99-1.994c-.388-.49-.663-.911-.865-1.326.205-.193.368-.356.545-.538.087-.087.179-.185.285-.292.853-.853.854-1.951.002-2.803l-.975-.975a17.68 17.68 0 0 1-.33-.336c-.11-.11-.219-.224-.33-.336-.113-.112-.228-.227-.346-.333C4.131.17 3.01.172 2.191.957L2.18.968.954 2.194C.452 2.684.17 3.294.11 3.99z"/></g></g></svg>